<svg width="40" height="420" viewBox="0 0 40 420" fill="none" xmlns="http://www.w3.org/2000/svg">
<rect y="190" width="40" height="40" rx="20" fill="#F5F4D6"/>
<path d="M21.6668 211.877V213.618C20.9126 213.352 20.1054 213.27 19.313 213.38C18.5206 213.49 17.7662 213.788 17.113 214.25C16.4599 214.712 15.9271 215.324 15.5595 216.035C15.1918 216.745 15 217.533 15.0002 218.333L13.3335 218.333C13.3332 217.315 13.5659 216.311 14.0137 215.397C14.4616 214.483 15.1126 213.684 15.917 213.061C16.7214 212.438 17.6578 212.007 18.6545 211.801C19.6511 211.596 20.6816 211.622 21.6668 211.877ZM20.0002 210.833C17.2377 210.833 15.0002 208.596 15.0002 205.833C15.0002 203.071 17.2377 200.833 20.0002 200.833C22.7627 200.833 25.0002 203.071 25.0002 205.833C25.0002 208.596 22.7627 210.833 20.0002 210.833ZM20.0002 209.167C21.8418 209.167 23.3335 207.675 23.3335 205.833C23.3335 203.992 21.8418 202.5 20.0002 202.5C18.1585 202.5 16.6668 203.992 16.6668 205.833C16.6668 207.675 18.1585 209.167 20.0002 209.167ZM24.8277 216.595L27.7735 213.649L28.9527 214.828L24.8277 218.953L21.881 216.006L23.0602 214.828L24.8277 216.595Z" fill="#FFCB05"/>
</svg>
