<svg width="25" height="24" viewBox="0 0 25 24" fill="none" xmlns="http://www.w3.org/2000/svg">
<path d="M23.2039 0H2.75234C1.77266 0 0.980469 0.773438 0.980469 1.72969V22.2656C0.980469 23.2219 1.77266 24 2.75234 24H23.2039C24.1836 24 24.9805 23.2219 24.9805 22.2703V1.72969C24.9805 0.773438 24.1836 0 23.2039 0ZM8.10078 20.4516H4.53828V8.99531H8.10078V20.4516ZM6.31953 7.43438C5.17578 7.43438 4.25235 6.51094 4.25235 5.37187C4.25235 4.23281 5.17578 3.30937 6.31953 3.30937C7.4586 3.30937 8.38203 4.23281 8.38203 5.37187C8.38203 6.50625 7.4586 7.43438 6.31953 7.43438ZM21.4321 20.4516H17.8742V14.8828C17.8742 13.5562 17.8508 11.8453 16.0227 11.8453C14.1711 11.8453 13.8899 13.2937 13.8899 14.7891V20.4516H10.3367V8.99531H13.7492V10.5609H13.7961C14.2696 9.66094 15.4321 8.70938 17.1618 8.70938C20.7664 8.70938 21.4321 11.0813 21.4321 14.1656V20.4516Z" fill="#2D2E1B"/>
</svg>
