<svg width="25" height="24" viewBox="0 0 25 24" fill="none" xmlns="http://www.w3.org/2000/svg">
<path d="M12.9805 2.16094C16.1868 2.16094 16.5664 2.175 17.8274 2.23125C18.9993 2.28281 19.6321 2.47969 20.0539 2.64375C20.6118 2.85938 21.0149 3.12188 21.4321 3.53906C21.8539 3.96094 22.1118 4.35938 22.3274 4.91719C22.4914 5.33906 22.6883 5.97656 22.7399 7.14375C22.7961 8.40937 22.8102 8.78906 22.8102 11.9906C22.8102 15.1969 22.7961 15.5766 22.7399 16.8375C22.6883 18.0094 22.4914 18.6422 22.3274 19.0641C22.1118 19.6219 21.8493 20.025 21.4321 20.4422C21.0102 20.8641 20.6118 21.1219 20.0539 21.3375C19.6321 21.5016 18.9946 21.6984 17.8274 21.75C16.5618 21.8063 16.1821 21.8203 12.9805 21.8203C9.77422 21.8203 9.39453 21.8063 8.1336 21.75C6.96172 21.6984 6.32891 21.5016 5.90703 21.3375C5.34922 21.1219 4.9461 20.8594 4.52891 20.4422C4.10703 20.0203 3.84922 19.6219 3.6336 19.0641C3.46953 18.6422 3.27266 18.0047 3.2211 16.8375C3.16485 15.5719 3.15078 15.1922 3.15078 11.9906C3.15078 8.78438 3.16485 8.40469 3.2211 7.14375C3.27266 5.97187 3.46953 5.33906 3.6336 4.91719C3.84922 4.35938 4.11172 3.95625 4.52891 3.53906C4.95078 3.11719 5.34922 2.85938 5.90703 2.64375C6.32891 2.47969 6.96641 2.28281 8.1336 2.23125C9.39453 2.175 9.77422 2.16094 12.9805 2.16094ZM12.9805 0C9.72266 0 9.31485 0.0140625 8.03516 0.0703125C6.76016 0.126563 5.8836 0.332812 5.12422 0.628125C4.33203 0.9375 3.66172 1.34531 2.9961 2.01562C2.32578 2.68125 1.91797 3.35156 1.60859 4.13906C1.31328 4.90313 1.10703 5.775 1.05078 7.05C0.994531 8.33437 0.980469 8.74219 0.980469 12C0.980469 15.2578 0.994531 15.6656 1.05078 16.9453C1.10703 18.2203 1.31328 19.0969 1.60859 19.8563C1.91797 20.6484 2.32578 21.3188 2.9961 21.9844C3.66172 22.65 4.33203 23.0625 5.11953 23.3672C5.8836 23.6625 6.75547 23.8687 8.03047 23.925C9.31016 23.9812 9.71797 23.9953 12.9758 23.9953C16.2336 23.9953 16.6414 23.9812 17.9211 23.925C19.1961 23.8687 20.0727 23.6625 20.8321 23.3672C21.6196 23.0625 22.2899 22.65 22.9555 21.9844C23.6211 21.3188 24.0336 20.6484 24.3383 19.8609C24.6336 19.0969 24.8399 18.225 24.8961 16.95C24.9524 15.6703 24.9664 15.2625 24.9664 12.0047C24.9664 8.74688 24.9524 8.33906 24.8961 7.05938C24.8399 5.78438 24.6336 4.90781 24.3383 4.14844C24.043 3.35156 23.6352 2.68125 22.9649 2.01562C22.2993 1.35 21.6289 0.9375 20.8414 0.632812C20.0774 0.3375 19.2055 0.13125 17.9305 0.075C16.6461 0.0140625 16.2383 0 12.9805 0Z" fill="#2D2E1B"/>
<path d="M12.9805 5.83594C9.57735 5.83594 6.81641 8.59688 6.81641 12C6.81641 15.4031 9.57735 18.1641 12.9805 18.1641C16.3836 18.1641 19.1446 15.4031 19.1446 12C19.1446 8.59688 16.3836 5.83594 12.9805 5.83594ZM12.9805 15.9984C10.7727 15.9984 8.98203 14.2078 8.98203 12C8.98203 9.79219 10.7727 8.00156 12.9805 8.00156C15.1883 8.00156 16.9789 9.79219 16.9789 12C16.9789 14.2078 15.1883 15.9984 12.9805 15.9984Z" fill="#2D2E1B"/>
<path d="M20.8273 5.59214C20.8273 6.38902 20.1804 7.0312 19.3882 7.0312C18.5913 7.0312 17.9492 6.38433 17.9492 5.59214C17.9492 4.79526 18.596 4.15308 19.3882 4.15308C20.1804 4.15308 20.8273 4.79995 20.8273 5.59214Z" fill="#2D2E1B"/>
</svg>
