<svg width="40" height="420" viewBox="0 0 40 420" fill="none" xmlns="http://www.w3.org/2000/svg">
<rect y="190" width="40" height="40" rx="20" fill="#F5F4D6"/>
<path d="M20 217.417L24.125 213.292C24.9407 212.476 25.4962 211.436 25.7213 210.305C25.9463 209.173 25.8307 208 25.3892 206.935C24.9477 205.869 24.2 204.958 23.2407 204.317C22.2815 203.676 21.1537 203.334 20 203.334C18.8463 203.334 17.7185 203.676 16.7592 204.317C15.8 204.958 15.0523 205.869 14.6108 206.935C14.1692 208 14.0537 209.173 14.2787 210.305C14.5037 211.436 15.0593 212.476 15.875 213.292L20 217.417ZM20 219.773L14.6967 214.47C13.6478 213.421 12.9335 212.085 12.6441 210.63C12.3547 209.175 12.5033 207.667 13.0709 206.296C13.6386 204.926 14.5999 203.755 15.8332 202.931C17.0666 202.106 18.5167 201.667 20 201.667C21.4833 201.667 22.9334 202.106 24.1667 202.931C25.4002 203.755 26.3614 204.926 26.9291 206.296C27.4967 207.667 27.6452 209.175 27.3559 210.63C27.0665 212.085 26.3522 213.421 25.3033 214.47L20 219.773ZM20 210.833C20.442 210.833 20.8659 210.658 21.1785 210.345C21.4911 210.033 21.6667 209.609 21.6667 209.167C21.6667 208.725 21.4911 208.301 21.1785 207.988C20.8659 207.675 20.442 207.5 20 207.5C19.558 207.5 19.1341 207.675 18.8215 207.988C18.5089 208.301 18.3333 208.725 18.3333 209.167C18.3333 209.609 18.5089 210.033 18.8215 210.345C19.1341 210.658 19.558 210.833 20 210.833ZM20 212.5C19.1159 212.5 18.2681 212.149 17.643 211.524C17.0179 210.898 16.6667 210.051 16.6667 209.167C16.6667 208.283 17.0179 207.435 17.643 206.81C18.2681 206.184 19.1159 205.833 20 205.833C20.8841 205.833 21.7319 206.184 22.357 206.81C22.9822 207.435 23.3333 208.283 23.3333 209.167C23.3333 210.051 22.9822 210.898 22.357 211.524C21.7319 212.149 20.8841 212.5 20 212.5Z" fill="#FFCB05"/>
</svg>
