<svg width="40" height="420" viewBox="0 0 40 420" fill="none" xmlns="http://www.w3.org/2000/svg">
<rect y="190" width="40" height="40" rx="20" fill="#F5F4D6"/>
<path d="M25.8332 216.667H14.1665V217.5C14.1665 217.721 14.0787 217.933 13.9224 218.089C13.7661 218.246 13.5542 218.333 13.3332 218.333H12.4998C12.2788 218.333 12.0669 218.246 11.9106 218.089C11.7543 217.933 11.6665 217.721 11.6665 217.5V209.167L13.7332 204.343C13.8618 204.043 14.0756 203.788 14.3482 203.608C14.6208 203.429 14.9401 203.333 15.2665 203.333H24.7332C25.0593 203.333 25.3783 203.429 25.6505 203.609C25.9228 203.788 26.1363 204.044 26.2648 204.343L28.3332 209.167V217.5C28.3332 217.721 28.2453 217.933 28.0891 218.089C27.9328 218.246 27.7208 218.333 27.4998 218.333H26.6665C26.4455 218.333 26.2335 218.246 26.0773 218.089C25.921 217.933 25.8332 217.721 25.8332 217.5V216.667ZM26.6665 210.833H13.3332V215H26.6665V210.833ZM13.4798 209.167H26.5198L24.734 205H15.2665L13.4798 209.167ZM15.4165 214.167C15.085 214.167 14.767 214.035 14.5326 213.801C14.2982 213.566 14.1665 213.248 14.1665 212.917C14.1665 212.585 14.2982 212.267 14.5326 212.033C14.767 211.798 15.085 211.667 15.4165 211.667C15.748 211.667 16.066 211.798 16.3004 212.033C16.5348 212.267 16.6665 212.585 16.6665 212.917C16.6665 213.248 16.5348 213.566 16.3004 213.801C16.066 214.035 15.748 214.167 15.4165 214.167ZM24.5832 214.167C24.2517 214.167 23.9337 214.035 23.6993 213.801C23.4648 213.566 23.3332 213.248 23.3332 212.917C23.3332 212.585 23.4648 212.267 23.6993 212.033C23.9337 211.798 24.2517 211.667 24.5832 211.667C24.9147 211.667 25.2327 211.798 25.4671 212.033C25.7015 212.267 25.8332 212.585 25.8332 212.917C25.8332 213.248 25.7015 213.566 25.4671 213.801C25.2327 214.035 24.9147 214.167 24.5832 214.167Z" fill="#FFCB05"/>
</svg>
