<svg width="18" height="18" viewBox="0 0 18 18" fill="none" xmlns="http://www.w3.org/2000/svg">
<path d="M8.47835 0.609982C8.64915 0.199342 9.23091 0.199342 9.40171 0.609982L11.4678 5.57746C11.5398 5.75058 11.7026 5.86887 11.8895 5.88385L17.2523 6.31378C17.6956 6.34932 17.8754 6.90258 17.5376 7.19191L13.4517 10.6919C13.3093 10.8139 13.2471 11.0053 13.2906 11.1876L14.5389 16.4208C14.6421 16.8534 14.1715 17.1954 13.7919 16.9635L9.20061 14.1592C9.04061 14.0615 8.83939 14.0615 8.67938 14.1592L4.08807 16.9635C3.70852 17.1954 3.23789 16.8534 3.34109 16.4208L4.5894 11.1876C4.6329 11.0053 4.57071 10.8139 4.42832 10.6919L0.342421 7.19191C0.00465105 6.90258 0.184421 6.34932 0.627741 6.31378L5.99055 5.88385C6.17745 5.86887 6.34025 5.75058 6.41226 5.57746L8.47835 0.609982Z" fill="#FEC84B"/>
</svg>
